HIERARCHY
ROOT root
{
	OFFSET 0.00 0.00 0.00
	CHANNELS 6 Xposition Yposition Zposition Zrotation Xrotation Yrotation
	JOINT lowerback
	{
		OFFSET 0 0 0
		CHANNELS 6 Xposition Yposition Zposition Zrotation Xrotation Yrotation
		JOINT upperback
		{
			OFFSET -0.214371 12.3768 -1.12219
			CHANNELS 6 Xposition Yposition Zposition Zrotation Xrotation Yrotation
			JOINT thorax
			{
				OFFSET -0.00137213 12.3873 0.296195
				CHANNELS 6 Xposition Yposition Zposition Zrotation Xrotation Yrotation
				JOINT lowerneck
				{
					OFFSET 0.0883157 12.5016 0.82912
					CHANNELS 6 Xposition Yposition Zposition Zrotation Xrotation Yrotation
					JOINT upperneck
					{
						OFFSET -1 10.1794 0.943522
						CHANNELS 6 Xposition Yposition Zposition Zrotation Xrotation Yrotation
						JOINT head
						{
							OFFSET 0.667525 10.2797 -1.57149
							CHANNELS 6 Xposition Yposition Zposition Zrotation Xrotation Yrotation
							End Site
							{
								OFFSET 0 0 0
							}
						}
					}
				}
				JOINT lclavicle
				{
					OFFSET 0.0883157 12.5016 0.82912
					CHANNELS 6 Xposition Yposition Zposition Zrotation Xrotation Yrotation
					JOINT lhumerus
					{
						OFFSET 20.61 4.45006 1.43784
						CHANNELS 6 Xposition Yposition Zposition Zrotation Xrotation Yrotation
						JOINT lradius
						{
							OFFSET 0 -30.3438 0
							CHANNELS 6 Xposition Yposition Zposition Zrotation Xrotation Yrotation
							JOINT lwrist
							{
								OFFSET 0 -18.964 0
								CHANNELS 6 Xposition Yposition Zposition Zrotation Xrotation Yrotation
								JOINT lhand
								{
									OFFSET 0 -9.48199 0
									CHANNELS 6 Xposition Yposition Zposition Zrotation Xrotation Yrotation
									JOINT lfingers
									{
										OFFSET 0 -3.17138 0
										CHANNELS 6 Xposition Yposition Zposition Zrotation Xrotation Yrotation
										End Site
										{
											OFFSET 0 -2.55685 0
										}
									}
								}
								JOINT lthumb
								{
									OFFSET 0 -9.48199 0
									CHANNELS 6 Xposition Yposition Zposition Zrotation Xrotation Yrotation
									End Site
									{
										OFFSET 0 -3.67114 0
									}
								}
							}
						}
					}
				}
				JOINT rclavicle
				{
					OFFSET 0.0883157 12.5016 0.82912
					CHANNELS 6 Xposition Yposition Zposition Zrotation Xrotation Yrotation
					JOINT rhumerus
					{
						OFFSET -20.61 4.45 1.44
						CHANNELS 6 Xposition Yposition Zposition Zrotation Xrotation Yrotation
						JOINT rradius
						{
							OFFSET 0 -29.5102 0
							CHANNELS 6 Xposition Yposition Zposition Zrotation Xrotation Yrotation
							JOINT rwrist
							{
								OFFSET 0 -19.2342 0
								CHANNELS 6 Xposition Yposition Zposition Zrotation Xrotation Yrotation
								JOINT rhand
								{
									OFFSET 0 -9.61712 0
									CHANNELS 6 Xposition Yposition Zposition Zrotation Xrotation Yrotation
									JOINT rfingers
									{
										OFFSET 0 -3.29215 0
										CHANNELS 6 Xposition Yposition Zposition Zrotation Xrotation Yrotation
										End Site
										{
											OFFSET 0 -2.557 0
										}
									}
								}
								JOINT rthumb
								{
									OFFSET 0 -9.61712 0
									CHANNELS 6 Xposition Yposition Zposition Zrotation Xrotation Yrotation
									End Site
									{
										OFFSET 0 -3.671 0
									}
								}
							}
						}
					}
				}
			}
		}
	}
	JOINT rfemur
	{
		OFFSET -8.46272 -9.62775 4.76248
		CHANNELS 6 Xposition Yposition Zposition Zrotation Xrotation Yrotation
		JOINT rtibia
		{
			OFFSET 1.00552e-005 -38.0331 0
			CHANNELS 6 Xposition Yposition Zposition Zrotation Xrotation Yrotation
			JOINT rfoot
			{
				OFFSET 1.14428e-005 -43.2815 0
				CHANNELS 6 Xposition Yposition Zposition Zrotation Xrotation Yrotation
				JOINT rtoes
				{
					OFFSET 0 -14.1868 -3.08763
					CHANNELS 6 Xposition Yposition Zposition Zrotation Xrotation Yrotation
					End Site
					{
						OFFSET 0 -7.27332 0
					}
				}
			}
		}
	}
	JOINT lfemur
	{
		OFFSET 9.10607 -9.62778 4.76249
		CHANNELS 6 Xposition Yposition Zposition Zrotation Xrotation Yrotation
		JOINT ltibia
		{
			OFFSET -1.01399e-005 -38.3535 0
			CHANNELS 6 Xposition Yposition Zposition Zrotation Xrotation Yrotation
			JOINT lfoot
			{
				OFFSET -1.12937e-005 -42.7176 0
				CHANNELS 6 Xposition Yposition Zposition Zrotation Xrotation Yrotation
				JOINT ltoes
				{
					OFFSET 0 -13.9965 -2.83857
					CHANNELS 6 Xposition Yposition Zposition Zrotation Xrotation Yrotation
					End Site
					{
						OFFSET 0 -7.16348 0
					}
				}
			}
		}
	}
}
MOTION
Frames: 10
Frame Time: 0.00833333
3.45057	97.5969	68.0893	-7.2249	0.364981	-1.6892	0 0 0 5.83069	-1.86904	2.46536	-0.214371 12.3768 -1.12219 0.963072	-4.34253	3.24108	-0.00137213 12.3873 0.296195 -2.41581	-3.17109	1.4063	0.0883157 12.5016 0.82912 -13.8771	-9.46455	-11.7463	-1 10.1794 0.943522 16.3221	12.4359	-16.6087	0.667525 10.2797 -1.57149 5.25346	7.52368	-7.6406	0.0883157 12.5016 0.82912 -15	0	-0	20.61 4.45006 1.43784 14.5507	33.9346	175.368	0 -30.3438 0 -0	82.1384	-0	0 -18.964 0 1.39302e-014	-1.19932e-015	-99.8415	0 -9.48199 0 1.22245	4.37968	-2.58917e-014	0 -3.17138 0 -0	7.12502	-0	0 -9.48199 0 25	15	-1.36605e-015	0.0883157 12.5016 0.82912 15	0	-0	-20.61 4.45 1.44 -29.2045	9.26604	-141.177	0 -29.5102 0 -180	66.0111	180	0 -19.2342 0 5.5358e-017	-8.79657e-016	97.2019	0 -9.61712 0 1.22	4.38	-0	0 -3.29215 0 -0	7.12502	-0	0 -9.61712 0 25	15	-7.97034e-015	-8.46272 -9.62775 4.76248 12.6922	10.1357	-14.4772	1.00552e-005 -38.0331 0 -0	15.8262	-0	1.14428e-005 -43.2815 0 15.4881	-66.5112	16.8116	0 -14.1868 -3.08763 -0	-35.7586	-0	9.10607 -9.62778 4.76249 3.35954	-24.6431	1.68515	-1.01399e-005 -38.3535 0 -0	16.8042	-0	-1.12937e-005 -42.7176 0 10.2687	-71.4076	10.821	0 -13.9965 -2.83857 -0	-36.543	-0
3.47152	97.5173	68.6466	-7.355	0.51439	-1.93485	0 0 0 5.88117	-1.98616	2.39525	-0.214371 12.3768 -1.12219 1.01254	-4.39023	3.13946	-0.00137213 12.3873 0.296195 -2.38471	-3.16296	1.35288	0.0883157 12.5016 0.82912 -14.104	-9.02177	-12.0634	-1 10.1794 0.943522 16.6891	12.1136	-17.1002	0.667525 10.2797 -1.57149 5.38294	7.46414	-7.89517	0.0883157 12.5016 0.82912 -15	0	-0	20.61 4.45006 1.43784 14.3767	34.0897	175.548	0 -30.3438 0 -0	82.3162	-0	0 -18.964 0 1.39306e-014	-1.19664e-015	-99.8193	0 -9.48199 0 1.22245	4.37968	-2.58917e-014	0 -3.17138 0 -0	7.12502	-0	0 -9.48199 0 25	15	-1.36605e-015	0.0883157 12.5016 0.82912 15	0	-0	-20.61 4.45 1.44 -29.2794	9.08034	-141.066	0 -29.5102 0 -180	66.0554	180	0 -19.2342 0 5.91672e-017	-9.09295e-016	97.4459	0 -9.61712 0 1.22	4.38	-0	0 -3.29215 0 -0	7.12502	-0	0 -9.61712 0 25	15	-7.97034e-015	-8.46272 -9.62775 4.76248 12.7389	10.4086	-14.3472	1.00552e-005 -38.0331 0 -0	15.7576	-0	1.14428e-005 -43.2815 0 15.9622	-66.237	17.3556	0 -14.1868 -3.08763 -0	-35.9878	-0	9.10607 -9.62778 4.76249 3.62664	-24.3791	2.07817	-1.01399e-005 -38.3535 0 -0	16.5006	-0	-1.12937e-005 -42.7176 0 10.2364	-71.7212	10.7678	0 -13.9965 -2.83857 -0	-36.4859	-0
3.4892	97.4298	69.2029	-7.44604	0.639523	-2.18222	0 0 0 5.88262	-2.07411	2.31701	-0.214371 12.3768 -1.12219 1.05165	-4.4355	3.02879	-0.00137213 12.3873 0.296195 -2.33808	-3.17079	1.29622	0.0883157 12.5016 0.82912 -14.2916	-8.57416	-12.3658	-1 10.1794 0.943522 17.0248	11.7736	-17.5699	0.667525 10.2797 -1.57149 5.50324	7.39393	-8.1418	0.0883157 12.5016 0.82912 -15	0	-0	20.61 4.45006 1.43784 14.1996	34.2296	175.735	0 -30.3438 0 -0	82.4699	-0	0 -18.964 0 1.39307e-014	-1.19651e-015	-99.8182	0 -9.48199 0 1.22245	4.37968	-2.58917e-014	0 -3.17138 0 -0	7.12502	-0	0 -9.48199 0 25	15	-1.36605e-015	0.0883157 12.5016 0.82912 15	0	-0	-20.61 4.45 1.44 -29.3586	8.87048	-140.961	0 -29.5102 0 -180	66.12	180	0 -19.2342 0 6.3183e-017	-9.39511e-016	97.6948	0 -9.61712 0 1.22	4.38	-0	0 -3.29215 0 -0	7.12502	-0	0 -9.61712 0 25	15	-7.97034e-015	-8.46272 -9.62775 4.76248 12.751	10.693	-14.153	1.00552e-005 -38.0331 0 -0	15.7172	-0	1.14428e-005 -43.2815 0 16.3063	-66.0014	17.7563	0 -14.1868 -3.08763 -0	-36.2477	-0	9.10607 -9.62778 4.76249 3.87817	-24.1071	2.54185	-1.01399e-005 -38.3535 0 -0	16.3452	-0	-1.12937e-005 -42.7176 0 10.2418	-71.9515	10.7596	0 -13.9965 -2.83857 -0	-36.4662	-0
3.50204	97.3417	69.7612	-7.49587	0.740294	-2.42946	0 0 0 5.83403	-2.13445	2.23115	-0.214371 12.3768 -1.12219 1.07957	-4.47829	2.90975	-0.00137213 12.3873 0.296195 -2.27609	-3.19348	1.23673	0.0883157 12.5016 0.82912 -14.4392	-8.12263	-12.6521	-1 10.1794 0.943522 17.3271	11.4155	-18.015	0.667525 10.2797 -1.57149 5.61405	7.31195	-8.37899	0.0883157 12.5016 0.82912 -15	0	-0	20.61 4.45006 1.43784 14.0258	34.3495	175.92	0 -30.3438 0 -0	82.593	-0	0 -18.964 0 1.39302e-014	-1.19884e-015	-99.8375	0 -9.48199 0 1.22245	4.37968	-2.58917e-014	0 -3.17138 0 -0	7.12502	-0	0 -9.48199 0 25	15	-1.36605e-015	0.0883157 12.5016 0.82912 15	0	-0	-20.61 4.45 1.44 -29.4397	8.64084	-140.867	0 -29.5102 0 -180	66.2066	180	0 -19.2342 0 6.72774e-017	-9.69333e-016	97.9406	0 -9.61712 0 1.22	4.38	-0	0 -3.29215 0 -0	7.12502	-0	0 -9.61712 0 25	15	-7.97034e-015	-8.46272 -9.62775 4.76248 12.7261	10.9861	-13.8945	1.00552e-005 -38.0331 0 -0	15.7077	-0	1.14428e-005 -43.2815 0 16.506	-65.8042	17.9974	0 -14.1868 -3.08763 -0	-36.5416	-0	9.10607 -9.62778 4.76249 4.10864	-23.8208	3.07642	-1.01399e-005 -38.3535 0 -0	16.3016	-0	-1.12937e-005 -42.7176 0 10.2614	-72.0886	10.772	0 -13.9965 -2.83857 -0	-36.4724	-0
3.5089	97.2644	70.3183	-7.50533	0.818394	-2.67517	0 0 0 5.73831	-2.171	2.13858	-0.214371 12.3768 -1.12219 1.09623	-4.51883	2.78335	-0.00137213 12.3873 0.296195 -2.20025	-3.22881	1.17487	0.0883157 12.5016 0.82912 -14.5476	-7.66885	-12.921	-1 10.1794 0.943522 17.5956	11.0407	-18.433	0.667525 10.2797 -1.57149 5.71544	7.21807	-8.60544	0.0883157 12.5016 0.82912 -15	0	-0	20.61 4.45006 1.43784 13.8616	34.4448	176.095	0 -30.3438 0 -0	82.6799	-0	0 -18.964 0 1.39294e-014	-1.20359e-015	-99.8769	0 -9.48199 0 1.22245	4.37968	-2.58917e-014	0 -3.17138 0 -0	7.12502	-0	0 -9.48199 0 25	15	-1.36605e-015	0.0883157 12.5016 0.82912 15	0	-0	-20.61 4.45 1.44 -29.5208	8.39649	-140.787	0 -29.5102 0 -180	66.316	180	0 -19.2342 0 7.12977e-017	-9.97731e-016	98.1748	0 -9.61712 0 1.22	4.38	-0	0 -3.29215 0 -0	7.12502	-0	0 -9.61712 0 25	15	-7.97034e-015	-8.46272 -9.62775 4.76248 12.6643	11.2842	-13.5738	1.00552e-005 -38.0331 0 -0	15.7303	-0	1.14428e-005 -43.2815 0 16.5488	-65.6419	18.0651	0 -14.1868 -3.08763 -0	-36.8703	-0	9.10607 -9.62778 4.76249 4.31465	-23.5169	3.67757	-1.01399e-005 -38.3535 0 -0	16.3357	-0	-1.12937e-005 -42.7176 0 10.2652	-72.127	10.7737	0 -13.9965 -2.83857 -0	-36.4832	-0
3.50849	97.208	70.8794	-7.4782	0.877235	-2.9184	0 0 0 5.60209	-2.18976	2.04052	-0.214371 12.3768 -1.12219 1.10232	-4.55765	2.65083	-0.00137213 12.3873 0.296195 -2.11329	-3.27361	1.11109	0.0883157 12.5016 0.82912 -14.6192	-7.21544	-13.1718	-1 10.1794 0.943522 17.8314	10.6524	-18.8224	0.667525 10.2797 -1.57149 5.80788	7.11323	-8.82005	0.0883157 12.5016 0.82912 -15	0	-0	20.61 4.45006 1.43784 13.7132	34.5111	176.254	0 -30.3438 0 -0	82.7262	-0	0 -18.964 0 1.39282e-014	-1.21074e-015	-99.9362	0 -9.48199 0 1.22245	4.37968	-2.58917e-014	0 -3.17138 0 -0	7.12502	-0	0 -9.48199 0 25	15	-1.36605e-015	0.0883157 12.5016 0.82912 15	0	-0	-20.61 4.45 1.44 -29.6004	8.14304	-140.722	0 -29.5102 0 -180	66.4477	180	0 -19.2342 0 7.51013e-017	-1.02386e-015	98.3904	0 -9.61712 0 1.22	4.38	-0	0 -3.29215 0 -0	7.12502	-0	0 -9.61712 0 25	15	-7.97034e-015	-8.46272 -9.62775 4.76248 12.5686	11.5823	-13.1956	1.00552e-005 -38.0331 0 -0	15.7849	-0	1.14428e-005 -43.2815 0 16.4248	-65.5081	17.949	0 -14.1868 -3.08763 -0	-37.2312	-0	9.10607 -9.62778 4.76249 4.495	-23.1954	4.33604	-1.01399e-005 -38.3535 0 -0	16.4177	-0	-1.12937e-005 -42.7176 0 10.2193	-72.0662	10.7292	0 -13.9965 -2.83857 -0	-36.4683	-0
3.50693	97.1809	71.4444	-7.42079	0.921702	-3.15861	0 0 0 5.4351	-2.19837	1.93835	-0.214371 12.3768 -1.12219 1.09927	-4.59562	2.51354	-0.00137213 12.3873 0.296195 -2.01886	-3.32398	1.04582	0.0883157 12.5016 0.82912 -14.6577	-6.76587	-13.4039	-1 10.1794 0.943522 18.0369	10.256	-19.1825	0.667525 10.2797 -1.57149 5.89212	6.99948	-9.02196	0.0883157 12.5016 0.82912 -15	0	-0	20.61 4.45006 1.43784 13.5861	34.5452	176.391	0 -30.3438 0 -0	82.7294	-0	0 -18.964 0 1.39265e-014	-1.22037e-015	-100.016	0 -9.48199 0 1.22245	4.37968	-2.58917e-014	0 -3.17138 0 -0	7.12502	-0	0 -9.48199 0 25	15	-1.36605e-015	0.0883157 12.5016 0.82912 15	0	-0	-20.61 4.45 1.44 -29.678	7.8864	-140.674	0 -29.5102 0 -180	66.5997	180	0 -19.2342 0 7.85603e-017	-1.04704e-015	98.5818	0 -9.61712 0 1.22	4.38	-0	0 -3.29215 0 -0	7.12502	-0	0 -9.61712 0 25	15	-7.97034e-015	-8.46272 -9.62775 4.76248 12.4439	11.8748	-12.7665	1.00552e-005 -38.0331 0 -0	15.8706	-0	1.14428e-005 -43.2815 0 16.1279	-65.3938	17.6431	0 -14.1868 -3.08763 -0	-37.6183	-0	9.10607 -9.62778 4.76249 4.65048	-22.859	5.0375	-1.01399e-005 -38.3535 0 -0	16.5241	-0	-1.12937e-005 -42.7176 0 10.0896	-71.9112	10.6025	0 -13.9965 -2.83857 -0	-36.3906	-0
3.50527	97.1848	72.0164	-7.34128	0.957724	-3.39558	0 0 0 5.24921	-2.20557	1.8335	-0.214371 12.3768 -1.12219 1.08911	-4.63384	2.37279	-0.00137213 12.3873 0.296195 -1.9212	-3.37567	0.979377	0.0883157 12.5016 0.82912 -14.6681	-6.32426	-13.617	-1 10.1794 0.943522 18.2161	9.85849	-19.5133	0.667525 10.2797 -1.57149 5.96918	6.8798	-9.21056	0.0883157 12.5016 0.82912 -15	0	-0	20.61 4.45006 1.43784 13.4847	34.545	176.5	0 -30.3438 0 -0	82.6892	-0	0 -18.964 0 1.39243e-014	-1.23243e-015	-100.116	0 -9.48199 0 1.22245	4.37968	-2.58917e-014	0 -3.17138 0 -0	7.12502	-0	0 -9.48199 0 25	15	-1.36605e-015	0.0883157 12.5016 0.82912 15	0	-0	-20.61 4.45 1.44 -29.7536	7.63249	-140.643	0 -29.5102 0 -180	66.7681	180	0 -19.2342 0 8.15894e-017	-1.06692e-015	98.746	0 -9.61712 0 1.22	4.38	-0	0 -3.29215 0 -0	7.12502	-0	0 -9.61712 0 25	15	-7.97034e-015	-8.46272 -9.62775 4.76248 12.2974	12.155	-12.2947	1.00552e-005 -38.0331 0 -0	15.986	-0	1.14428e-005 -43.2815 0 15.6571	-65.2879	17.147	0 -14.1868 -3.08763 -0	-38.0224	-0	9.10607 -9.62778 4.76249 4.78357	-22.5127	5.76317	-1.01399e-005 -38.3535 0 -0	16.6375	-0	-1.12937e-005 -42.7176 0 9.8472	-71.6715	10.3622	0 -13.9965 -2.83857 -0	-36.209	-0
3.50455	97.2159	72.5955	-7.2489	0.991696	-3.62926	0 0 0 5.05723	-2.2203	1.72728	-0.214371 12.3768 -1.12219 1.07431	-4.67354	2.22969	-0.00137213 12.3873 0.296195 -1.82464	-3.42449	0.911928	0.0883157 12.5016 0.82912 -14.6563	-5.89512	-13.811	-1 10.1794 0.943522 18.3736	9.46811	-19.8153	0.667525 10.2797 -1.57149 6.04024	6.75788	-9.38553	0.0883157 12.5016 0.82912 -15	0	-0	20.61 4.45006 1.43784 13.4122	34.5101	176.58	0 -30.3438 0 -0	82.6079	-0	0 -18.964 0 1.39217e-014	-1.24713e-015	-100.238	0 -9.48199 0 1.22245	4.37968	-2.58917e-014	0 -3.17138 0 -0	7.12502	-0	0 -9.48199 0 25	15	-1.36605e-015	0.0883157 12.5016 0.82912 15	0	-0	-20.61 4.45 1.44 -29.8283	7.38697	-140.629	0 -29.5102 0 -180	66.9476	180	0 -19.2342 0 8.41357e-017	-1.08334e-015	98.8817	0 -9.61712 0 1.22	4.38	-0	0 -3.29215 0 -0	7.12502	-0	0 -9.61712 0 25	15	-7.97034e-015	-8.46272 -9.62775 4.76248 12.1369	12.4164	-11.79	1.00552e-005 -38.0331 0 -0	16.1297	-0	1.14428e-005 -43.2815 0 15.0171	-65.1779	16.4665	0 -14.1868 -3.08763 -0	-38.4311	-0	9.10607 -9.62778 4.76249 4.89799	-22.1629	6.491	-1.01399e-005 -38.3535 0 -0	16.7472	-0	-1.12937e-005 -42.7176 0 9.47183	-71.3607	9.98571	0 -13.9965 -2.83857 -0	-35.8833	-0
3.50937	97.265	73.1836	-7.15301	1.02982	-3.85968	0 0 0 4.87165	-2.25086	1.62074	-0.214371 12.3768 -1.12219 1.0576	-4.71604	2.08505	-0.00137213 12.3873 0.296195 -1.73315	-3.46675	0.843496	0.0883157 12.5016 0.82912 -14.6288	-5.48297	-13.9863	-1 10.1794 0.943522 18.5146	9.09361	-20.09	0.667525 10.2797 -1.57149 6.10652	6.63783	-9.54688	0.0883157 12.5016 0.82912 -15	0	-0	20.61 4.45006 1.43784 13.3702	34.4416	176.628	0 -30.3438 0 -0	82.4907	-0	0 -18.964 0 1.39185e-014	-1.26472e-015	-100.384	0 -9.48199 0 1.22245	4.37968	-2.58917e-014	0 -3.17138 0 -0	7.12502	-0	0 -9.48199 0 25	15	-1.36605e-015	0.0883157 12.5016 0.82912 15	0	-0	-20.61 4.45 1.44 -29.9037	7.15493	-140.628	0 -29.5102 0 -180	67.1313	180	0 -19.2342 0 8.61901e-017	-1.09641e-015	98.9897	0 -9.61712 0 1.22	4.38	-0	0 -3.29215 0 -0	7.12502	-0	0 -9.61712 0 25	15	-7.97034e-015	-8.46272 -9.62775 4.76248 11.9709	12.6527	-11.2628	1.00552e-005 -38.0331 0 -0	16.3001	-0	1.14428e-005 -43.2815 0 14.2187	-65.0508	15.614	0 -14.1868 -3.08763 -0	-38.8296	-0	9.10607 -9.62778 4.76249 4.99804	-21.8164	7.19735	-1.01399e-005 -38.3535 0 -0	16.848	-0	-1.12937e-005 -42.7176 0 8.95586	-70.9951	9.46296	0 -13.9965 -2.83857 -0	-35.3784	-0
